<svg width="112" height="116" viewBox="0 0 112 116" fill="none" xmlns="http://www.w3.org/2000/svg">
<path d="M112 64.4457C112 72.4217 108.823 80.071 103.168 85.7108C97.5132 91.3506 89.8435 94.5191 81.8462 94.5191C76.9856 94.5279 72.197 93.3478 67.9 91.0821L74.3077 110.361C74.5319 111.005 74.5951 111.694 74.4918 112.368C74.3886 113.042 74.1221 113.68 73.7154 114.228C73.3229 114.774 72.8057 115.22 72.2065 115.528C71.6074 115.836 70.9434 115.998 70.2692 116H41.7308C41.0566 115.998 40.3926 115.836 39.7935 115.528C39.1943 115.22 38.6771 114.774 38.2846 114.228C37.8779 113.68 37.6114 113.042 37.5082 112.368C37.4049 111.694 37.4681 111.005 37.6923 110.361L44.1 91.0821C39.803 93.3478 35.0144 94.5279 30.1538 94.5191C22.1565 94.5191 14.4868 91.3506 8.83186 85.7108C3.17691 80.071 0 72.4217 0 64.4457C0 35.6613 52.6077 1.77508 54.8154 0.325119C55.1737 0.112328 55.583 0 56 0C56.417 0 56.8263 0.112328 57.1846 0.325119C59.3923 1.77508 112 35.6613 112 64.4457Z" fill="#262525"/>
</svg>
